<svg xmlns="http://www.w3.org/2000/svg" width="25.72" height="19.591" viewBox="0 0 25.72 19.591">
  <g id="menu-gris" transform="translate(0 -61)">
    <g id="Grupo_2" data-name="Grupo 2" transform="translate(6.028 61)">
      <g id="Grupo_1" data-name="Grupo 1">
        <path id="Trazado_1" data-name="Trazado 1" d="M137.431,61H122.261a2.261,2.261,0,0,0,0,4.521h15.171a2.261,2.261,0,0,0,0-4.521Z" transform="translate(-120 -61)" fill="#707c80"/>
      </g>
    </g>
    <g id="Grupo_4" data-name="Grupo 4" transform="translate(6.028 68.535)">
      <g id="Grupo_3" data-name="Grupo 3">
        <path id="Trazado_2" data-name="Trazado 2" d="M137.431,211H122.261a2.261,2.261,0,1,0,0,4.521h15.171a2.261,2.261,0,1,0,0-4.521Z" transform="translate(-120 -211)" fill="#707c80"/>
      </g>
    </g>
    <g id="Grupo_6" data-name="Grupo 6" transform="translate(6.028 76.07)">
      <g id="Grupo_5" data-name="Grupo 5">
        <path id="Trazado_3" data-name="Trazado 3" d="M137.431,361H122.261a2.261,2.261,0,0,0,0,4.521h15.171a2.261,2.261,0,0,0,0-4.521Z" transform="translate(-120 -361)" fill="#707c80"/>
      </g>
    </g>
    <g id="Grupo_8" data-name="Grupo 8" transform="translate(0 61)">
      <g id="Grupo_7" data-name="Grupo 7">
        <path id="Trazado_4" data-name="Trazado 4" d="M2.261,61a2.261,2.261,0,1,0,2.261,2.261A2.263,2.263,0,0,0,2.261,61Z" transform="translate(0 -61)" fill="#707c80"/>
      </g>
    </g>
    <g id="Grupo_10" data-name="Grupo 10" transform="translate(0 68.535)">
      <g id="Grupo_9" data-name="Grupo 9">
        <path id="Trazado_5" data-name="Trazado 5" d="M2.261,211a2.261,2.261,0,1,0,2.261,2.261A2.263,2.263,0,0,0,2.261,211Z" transform="translate(0 -211)" fill="#707c80"/>
      </g>
    </g>
    <g id="Grupo_12" data-name="Grupo 12" transform="translate(0 76.07)">
      <g id="Grupo_11" data-name="Grupo 11">
        <path id="Trazado_6" data-name="Trazado 6" d="M2.261,361a2.261,2.261,0,1,0,2.261,2.261A2.263,2.263,0,0,0,2.261,361Z" transform="translate(0 -361)" fill="#707c80"/>
      </g>
    </g>
  </g>
</svg>
